<svg class="main-svg" xmlns="http://www.w3.org/2000/svg" xmlns:xlink="http://www.w3.org/1999/xlink" width="800" height="500" style="" viewBox="0 0 800 500"><rect x="0" y="0" width="800" height="500" style="fill: rgb(247, 247, 247); fill-opacity: 1;"/><defs id="defs-cfdb04"><g class="clips"><clipPath id="clipcfdb04xyplot" class="plotclip"><rect width="582" height="300"/></clipPath><clipPath class="axesclip" id="clipcfdb04x"><rect x="100" y="0" width="582" height="500"/></clipPath><clipPath class="axesclip" id="clipcfdb04y"><rect x="0" y="100" width="800" height="300"/></clipPath><clipPath class="axesclip" id="clipcfdb04xy"><rect x="100" y="100" width="582" height="300"/></clipPath></g><g class="gradients"/><g class="patterns"/></defs><g class="bglayer"/><g class="layer-below"><g class="imagelayer"/><g class="shapelayer"/></g><g class="cartesianlayer"><g class="subplot xy"><g class="layer-subplot"><g class="shapelayer"/><g class="imagelayer"/></g><g class="minor-gridlayer"><g class="x"/><g class="y"/></g><g class="gridlayer"><g class="x"><path class="xgrid crisp" transform="translate(192.63,0)" d="M0,100v300" style="stroke: rgb(231, 231, 231); stroke-opacity: 1; stroke-width: 1px;"/><path class="xgrid crisp" transform="translate(285.26,0)" d="M0,100v300" style="stroke: rgb(231, 231, 231); stroke-opacity: 1; stroke-width: 1px;"/><path class="xgrid crisp" transform="translate(377.88,0)" d="M0,100v300" style="stroke: rgb(231, 231, 231); stroke-opacity: 1; stroke-width: 1px;"/><path class="xgrid crisp" transform="translate(470.51,0)" d="M0,100v300" style="stroke: rgb(231, 231, 231); stroke-opacity: 1; stroke-width: 1px;"/><path class="xgrid crisp" transform="translate(563.14,0)" d="M0,100v300" style="stroke: rgb(231, 231, 231); stroke-opacity: 1; stroke-width: 1px;"/><path class="xgrid crisp" transform="translate(655.77,0)" d="M0,100v300" style="stroke: rgb(231, 231, 231); stroke-opacity: 1; stroke-width: 1px;"/></g><g class="y"><path class="ygrid crisp" transform="translate(0,385)" d="M100,0h582" style="stroke: rgb(231, 231, 231); stroke-opacity: 1; stroke-width: 1px;"/><path class="ygrid crisp" transform="translate(0,317.5)" d="M100,0h582" style="stroke: rgb(231, 231, 231); stroke-opacity: 1; stroke-width: 1px;"/><path class="ygrid crisp" transform="translate(0,182.5)" d="M100,0h582" style="stroke: rgb(231, 231, 231); stroke-opacity: 1; stroke-width: 1px;"/><path class="ygrid crisp" transform="translate(0,115)" d="M100,0h582" style="stroke: rgb(231, 231, 231); stroke-opacity: 1; stroke-width: 1px;"/></g></g><g class="zerolinelayer"><path class="xzl zl crisp" transform="translate(100,0)" d="M0,100v300" style="stroke: rgb(46, 46, 46); stroke-opacity: 1; stroke-width: 1px;"/><path class="yzl zl crisp" transform="translate(0,250)" d="M100,0h582" style="stroke: rgb(46, 46, 46); stroke-opacity: 1; stroke-width: 1px;"/></g><path class="xlines-below"/><path class="ylines-below"/><g class="overlines-below"/><g class="xaxislayer-below"/><g class="yaxislayer-below"/><g class="overaxes-below"/><g class="plot" transform="translate(100,100)" clip-path="url(#clipcfdb04xyplot)"><g class="scatterlayer mlayer"><g class="trace scatter tracee2870f" style="stroke-miterlimit: 2; opacity: 1;"><g class="fills"/><g class="errorbars"/><g class="lines"><path class="js-line" d="M0,150L67.27,102.05L70.19,100.06L108.21,75.55L111.14,73.78L140.38,57.21L143.31,55.67L172.55,41.66L175.48,40.4L201.8,30.35L204.72,29.37L228.12,22.7L231.05,22L254.44,17.62L257.37,17.21L280.76,15.2L283.69,15.1L307.09,15.5L310.01,15.71L333.41,18.52L336.33,19.02L359.73,24.18L362.65,24.97L386.05,32.38L388.97,33.44L415.3,44.26L418.22,45.6L444.54,58.77L447.47,60.35L479.64,79.14L482.56,80.97L517.66,104.05L520.58,106.06L570.3,141.48L573.23,143.61L582,150" style="vector-effect: non-scaling-stroke; fill: none; stroke: rgb(76, 120, 168); stroke-opacity: 1; stroke-width: 4px; opacity: 1;"/></g><g class="points"/><g class="text"/></g><g class="trace scatter trace7543fb" style="stroke-miterlimit: 2; opacity: 1;"><g class="fills"/><g class="errorbars"/><g class="lines"><path class="js-line" d="M0,150L38.02,96.13L40.94,92.25L61.42,66.9L64.34,63.58L81.89,45.6L84.81,42.95L99.44,31.35L102.36,29.37L114.06,22.7L116.98,21.34L128.68,17.21L131.61,16.51L143.31,15.03L146.23,15L157.93,16.21L160.85,16.85L172.55,20.71L175.48,22L187.18,28.43L190.1,30.35L204.72,41.66L207.65,44.26L222.27,58.77L225.2,61.96L242.74,82.81L245.67,86.54L269.07,118.33L271.99,122.49L336.33,213.46L339.26,217.19L356.8,238.04L359.73,241.23L374.35,255.74L377.28,258.34L391.9,269.65L394.82,271.57L406.52,278L409.45,279.29L421.15,283.15L424.07,283.79L435.77,285L438.69,284.97L450.39,283.49L453.32,282.79L465.02,278.66L467.94,277.3L479.64,270.63L482.56,268.65L497.19,257.05L500.11,254.4L514.73,239.65L517.66,236.42L535.21,215.34L538.13,211.58L561.53,179.6L564.45,175.42L582,150" style="vector-effect: non-scaling-stroke; fill: none; stroke: rgb(245, 133, 24); stroke-opacity: 1; stroke-width: 4px; opacity: 1;"/></g><g class="points"/><g class="text"/></g><g class="trace scatter trace83601f" style="stroke-miterlimit: 2; opacity: 1;"><g class="fills"/><g class="errorbars"/><g class="lines"><path class="js-line" d="M0,150L26.32,94.18L29.25,88.42L43.87,61.96L46.79,57.21L58.49,40.4L61.42,36.8L70.19,27.52L73.12,24.97L81.89,19.02L84.81,17.62L93.59,15.2L96.51,15L105.29,16.21L108.21,17.21L116.98,22L119.91,24.18L128.68,32.38L131.61,35.65L143.31,51.21L146.23,55.67L157.93,75.55L160.85,80.97L178.4,116.26L181.33,122.49L225.2,215.34L228.12,220.86L242.74,245.84L245.67,250.23L257.37,265.47L260.29,268.65L269.07,276.58L271.99,278.66L280.76,283.15L283.69,284.06L292.46,284.97L295.39,284.66L304.16,281.95L307.09,280.45L315.86,274.21L318.78,271.57L327.56,262.03L330.48,258.34L342.18,241.23L345.11,236.42L359.73,209.67L362.65,203.87L383.13,160.65L386.05,154.26L415.3,92.25L418.22,86.54L432.84,60.35L435.77,55.67L447.47,39.17L450.39,35.65L459.17,26.64L462.09,24.18L470.86,18.52L473.79,17.21L482.56,15.1L485.49,15L494.26,16.51L497.19,17.62L505.96,22.7L508.88,24.97L517.66,33.44L520.58,36.8L532.28,52.67L535.21,57.21L549.83,82.81L552.75,88.42L573.23,130.88L576.15,137.23L582,150" style="vector-effect: non-scaling-stroke; fill: none; stroke: rgb(228, 87, 86); stroke-opacity: 1; stroke-width: 4px; opacity: 1;"/></g><g class="points"/><g class="text"/></g><g class="trace scatter trace8a7676" style="stroke-miterlimit: 2; opacity: 1;"><g class="fills"/><g class="errorbars"/><g class="lines"><path class="js-line" d="M0,150L23.4,84.66L26.32,77.34L38.02,51.21L40.94,45.6L49.72,31.35L52.64,27.52L61.42,19.02L64.34,17.21L70.19,15.2L73.12,15L78.96,16.21L81.89,17.62L87.74,22L90.66,24.97L99.44,36.8L102.36,41.66L111.14,58.77L114.06,65.23L125.76,94.18L128.68,102.05L152.08,169.12L155.01,177.51L172.55,224.45L175.48,231.41L187.18,255.74L190.1,260.83L198.87,273.36L201.8,276.58L207.65,281.48L210.57,283.15L216.42,284.9L219.35,284.97L225.2,283.49L228.12,281.95L233.97,277.3L236.89,274.21L245.67,262.03L248.59,257.05L257.37,239.65L260.29,233.1L271.99,203.87L274.91,195.95L318.78,73.78L321.71,66.9L333.41,42.95L336.33,37.97L345.11,25.79L348.03,22.7L353.88,18.05L356.8,16.51L362.65,15.03L365.58,15.1L371.43,16.85L374.35,18.52L380.2,23.42L383.13,26.64L391.9,39.17L394.82,44.26L403.6,61.96L406.52,68.59L418.22,98.09L421.15,106.06L465.02,227.97L467.94,234.77L479.64,258.34L482.56,263.2L491.34,275.03L494.26,278L500.11,282.38L503.04,283.79L508.88,285L511.81,284.8L517.66,282.79L520.58,280.98L526.43,275.82L529.36,272.48L538.13,259.6L541.06,254.4L549.83,236.42L552.75,229.7L564.45,199.94L567.38,191.92L582,150" style="vector-effect: non-scaling-stroke; fill: none; stroke: rgb(114, 183, 178); stroke-opacity: 1; stroke-width: 4px; opacity: 1;"/></g><g class="points"/><g class="text"/></g><g class="trace scatter trace99ab83" style="stroke-miterlimit: 2; opacity: 1;"><g class="fills"/><g class="errorbars"/><g class="lines"><path class="js-line" d="M0,150L17.55,88.42L20.47,79.14L32.17,46.96L35.1,40.4L43.87,24.97L46.79,21.34L52.64,16.51L55.57,15.34L61.42,15.5L64.34,16.85L70.19,22L73.12,25.79L78.96,35.65L81.89,41.66L90.66,63.58L93.59,72.03L105.29,110.11L108.21,120.4L137.46,222.66L140.38,231.41L149.16,254.4L152.08,260.83L160.85,275.82L163.78,279.29L169.63,283.79L172.55,284.8L178.4,284.29L181.33,282.79L187.18,277.3L190.1,273.36L195.95,263.2L198.87,257.05L207.65,234.77L210.57,226.22L222.27,187.85L225.2,177.51L254.44,75.55L257.37,66.9L266.14,44.26L269.07,37.97L274.91,27.52L277.84,23.42L283.69,17.62L286.61,15.94L292.46,15.1L295.39,15.94L301.24,20.12L304.16,23.42L310.01,32.38L312.93,37.97L321.71,58.77L324.63,66.9L336.33,104.05L339.26,114.2L371.43,226.22L374.35,234.77L383.13,257.05L386.05,263.2L391.9,273.36L394.82,277.3L400.67,282.79L403.6,284.29L409.45,284.8L412.37,283.79L418.22,279.29L421.15,275.82L426.99,266.56L429.92,260.83L438.69,239.65L441.62,231.41L453.32,193.94L456.24,183.74L488.41,72.03L491.34,63.58L500.11,41.66L503.04,35.65L508.88,25.79L511.81,22L517.66,16.85L520.58,15.5L526.43,15.34L529.36,16.51L535.21,21.34L538.13,24.97L543.98,34.53L546.9,40.4L555.68,61.96L558.6,70.3L570.3,108.08L573.23,118.33L582,150" style="vector-effect: non-scaling-stroke; fill: none; stroke: rgb(84, 162, 75); stroke-opacity: 1; stroke-width: 4px; opacity: 1;"/></g><g class="points"/><g class="text"/></g><g class="trace scatter trace104b3b" style="stroke-miterlimit: 2; opacity: 1;"><g class="fills"/><g class="errorbars"/><g class="lines"><path class="js-line" d="M0,150L17.55,77.34L20.47,66.9L29.25,40.4L32.17,33.44L38.02,22.7L40.94,19.02L46.79,15.2L49.72,15.1L52.64,16.21L55.57,18.52L61.42,26.64L64.34,32.38L70.19,46.96L73.12,55.67L81.89,86.54L84.81,98.09L116.98,231.41L119.91,241.23L128.68,265.47L131.61,271.57L137.46,280.45L140.38,283.15L143.31,284.66L146.23,284.97L149.16,284.06L152.08,281.95L157.93,274.21L160.85,268.65L166.7,254.4L169.63,245.84L178.4,215.34L181.33,203.87L216.42,60.35L219.35,51.21L228.12,29.37L231.05,24.18L236.89,17.21L239.82,15.5L242.74,15L245.67,15.71L251.52,20.71L254.44,24.97L260.29,36.8L263.22,44.26L271.99,72.03L274.91,82.81L286.61,130.88L289.54,143.61L307.09,217.19L310.01,227.97L318.78,255.74L321.71,263.2L327.56,275.03L330.48,279.29L336.33,284.29L339.26,285L342.18,284.5L345.11,282.79L350.95,275.82L353.88,270.63L359.73,257.05L362.65,248.79L371.43,219.03L374.35,207.75L391.9,132.99L394.82,120.4L406.52,73.78L409.45,63.58L418.22,37.97L421.15,31.35L426.99,21.34L429.92,18.05L435.77,15.03L438.69,15.34L441.62,16.85L444.54,19.55L450.39,28.43L453.32,34.53L459.17,49.77L462.09,58.77L470.86,90.33L473.79,102.05L505.96,234.77L508.88,244.33L517.66,267.62L520.58,273.36L526.43,281.48L529.36,283.79L532.28,284.9L535.21,284.8L538.13,283.49L541.06,280.98L546.9,272.48L549.83,266.56L555.68,251.65L558.6,242.79L567.38,211.58L570.3,199.94L582,150" style="vector-effect: non-scaling-stroke; fill: none; stroke: rgb(238, 202, 59); stroke-opacity: 1; stroke-width: 4px; opacity: 1;"/></g><g class="points"/><g class="text"/></g></g></g><g class="overplot"/><path class="xlines-above crisp" d="M0,0" style="fill: none;"/><path class="ylines-above crisp" d="M0,0" style="fill: none;"/><g class="overlines-above"/><g class="xaxislayer-above"><g class="xtick"><text text-anchor="middle" x="0" y="422" transform="translate(100,0)" style="font-family: Arial; font-size: 16px; fill: rgb(46, 46, 46); fill-opacity: 1; white-space: pre; opacity: 1;">0</text></g><g class="xtick"><text text-anchor="middle" x="0" y="422" style="font-family: Arial; font-size: 16px; fill: rgb(46, 46, 46); fill-opacity: 1; white-space: pre; opacity: 1;" transform="translate(192.63,0)">0.5</text></g><g class="xtick"><text text-anchor="middle" x="0" y="422" style="font-family: Arial; font-size: 16px; fill: rgb(46, 46, 46); fill-opacity: 1; white-space: pre; opacity: 1;" transform="translate(285.26,0)">1</text></g><g class="xtick"><text text-anchor="middle" x="0" y="422" style="font-family: Arial; font-size: 16px; fill: rgb(46, 46, 46); fill-opacity: 1; white-space: pre; opacity: 1;" transform="translate(377.88,0)">1.5</text></g><g class="xtick"><text text-anchor="middle" x="0" y="422" style="font-family: Arial; font-size: 16px; fill: rgb(46, 46, 46); fill-opacity: 1; white-space: pre; opacity: 1;" transform="translate(470.51,0)">2</text></g><g class="xtick"><text text-anchor="middle" x="0" y="422" style="font-family: Arial; font-size: 16px; fill: rgb(46, 46, 46); fill-opacity: 1; white-space: pre; opacity: 1;" transform="translate(563.14,0)">2.5</text></g><g class="xtick"><text text-anchor="middle" x="0" y="422" style="font-family: Arial; font-size: 16px; fill: rgb(46, 46, 46); fill-opacity: 1; white-space: pre; opacity: 1;" transform="translate(655.77,0)">3</text></g></g><g class="yaxislayer-above"><g class="ytick"><text text-anchor="end" x="94" y="5.6" transform="translate(0,385)" style="font-family: Arial; font-size: 16px; fill: rgb(46, 46, 46); fill-opacity: 1; white-space: pre; opacity: 1;">−1</text></g><g class="ytick"><text text-anchor="end" x="94" y="5.6" style="font-family: Arial; font-size: 16px; fill: rgb(46, 46, 46); fill-opacity: 1; white-space: pre; opacity: 1;" transform="translate(0,317.5)">−0.5</text></g><g class="ytick"><text text-anchor="end" x="94" y="5.6" style="font-family: Arial; font-size: 16px; fill: rgb(46, 46, 46); fill-opacity: 1; white-space: pre; opacity: 1;" transform="translate(0,250)">0</text></g><g class="ytick"><text text-anchor="end" x="94" y="5.6" style="font-family: Arial; font-size: 16px; fill: rgb(46, 46, 46); fill-opacity: 1; white-space: pre; opacity: 1;" transform="translate(0,182.5)">0.5</text></g><g class="ytick"><text text-anchor="end" x="94" y="5.6" style="font-family: Arial; font-size: 16px; fill: rgb(46, 46, 46); fill-opacity: 1; white-space: pre; opacity: 1;" transform="translate(0,115)">1</text></g></g><g class="overaxes-above"/></g></g><g class="polarlayer"/><g class="smithlayer"/><g class="ternarylayer"/><g class="geolayer"/><g class="funnelarealayer"/><g class="pielayer"/><g class="iciclelayer"/><g class="treemaplayer"/><g class="sunburstlayer"/><g class="glimages"/><defs id="topdefs-cfdb04"><g class="clips"/><clipPath id="legendcfdb04"><rect width="94" height="153" x="0" y="0"/></clipPath></defs><g class="layer-above"><g class="imagelayer"/><g class="shapelayer"/></g><g class="infolayer"><g class="legend" pointer-events="all" transform="translate(693.64,100)"><rect class="bg" shape-rendering="crispEdges" style="stroke: rgb(68, 68, 68); stroke-opacity: 1; fill: rgb(247, 247, 247); fill-opacity: 1; stroke-width: 0px;" width="94" height="153" x="0" y="0"/><g class="scrollbox" transform="" clip-path="url(#legendcfdb04)"><g class="groups"><g class="traces" transform="translate(0,16.9)" style="opacity: 1;"><text class="legendtext" text-anchor="start" x="40" y="6.24" style="font-family: Arial; font-size: 16px; fill: rgb(46, 46, 46); fill-opacity: 1; white-space: pre;">sin(x)</text><g class="layers" style="opacity: 1;"><g class="legendfill"/><g class="legendlines"><path class="js-line" d="M5,0h30" style="fill: none; stroke: rgb(76, 120, 168); stroke-opacity: 1; stroke-width: 4px;"/></g><g class="legendsymbols"><g class="legendpoints"/></g></g><rect class="legendtoggle" x="0" y="-11.9" width="88.015625" height="23.8" style="fill: rgb(0, 0, 0); fill-opacity: 0;"/></g><g class="traces" transform="translate(0,40.7)" style="opacity: 1;"><text class="legendtext" text-anchor="start" x="40" y="6.24" style="font-family: Arial; font-size: 16px; fill: rgb(46, 46, 46); fill-opacity: 1; white-space: pre;">sin(2x)</text><g class="layers" style="opacity: 1;"><g class="legendfill"/><g class="legendlines"><path class="js-line" d="M5,0h30" style="fill: none; stroke: rgb(245, 133, 24); stroke-opacity: 1; stroke-width: 4px;"/></g><g class="legendsymbols"><g class="legendpoints"/></g></g><rect class="legendtoggle" x="0" y="-11.9" width="88.015625" height="23.8" style="fill: rgb(0, 0, 0); fill-opacity: 0;"/></g><g class="traces" transform="translate(0,64.5)" style="opacity: 1;"><text class="legendtext" text-anchor="start" x="40" y="6.24" style="font-family: Arial; font-size: 16px; fill: rgb(46, 46, 46); fill-opacity: 1; white-space: pre;">sin(3x)</text><g class="layers" style="opacity: 1;"><g class="legendfill"/><g class="legendlines"><path class="js-line" d="M5,0h30" style="fill: none; stroke: rgb(228, 87, 86); stroke-opacity: 1; stroke-width: 4px;"/></g><g class="legendsymbols"><g class="legendpoints"/></g></g><rect class="legendtoggle" x="0" y="-11.9" width="88.015625" height="23.8" style="fill: rgb(0, 0, 0); fill-opacity: 0;"/></g><g class="traces" transform="translate(0,88.30000000000001)" style="opacity: 1;"><text class="legendtext" text-anchor="start" x="40" y="6.24" style="font-family: Arial; font-size: 16px; fill: rgb(46, 46, 46); fill-opacity: 1; white-space: pre;">sin(4x)</text><g class="layers" style="opacity: 1;"><g class="legendfill"/><g class="legendlines"><path class="js-line" d="M5,0h30" style="fill: none; stroke: rgb(114, 183, 178); stroke-opacity: 1; stroke-width: 4px;"/></g><g class="legendsymbols"><g class="legendpoints"/></g></g><rect class="legendtoggle" x="0" y="-11.9" width="88.015625" height="23.8" style="fill: rgb(0, 0, 0); fill-opacity: 0;"/></g><g class="traces" transform="translate(0,112.10000000000001)" style="opacity: 1;"><text class="legendtext" text-anchor="start" x="40" y="6.24" style="font-family: Arial; font-size: 16px; fill: rgb(46, 46, 46); fill-opacity: 1; white-space: pre;">sin(5x)</text><g class="layers" style="opacity: 1;"><g class="legendfill"/><g class="legendlines"><path class="js-line" d="M5,0h30" style="fill: none; stroke: rgb(84, 162, 75); stroke-opacity: 1; stroke-width: 4px;"/></g><g class="legendsymbols"><g class="legendpoints"/></g></g><rect class="legendtoggle" x="0" y="-11.9" width="88.015625" height="23.8" style="fill: rgb(0, 0, 0); fill-opacity: 0;"/></g><g class="traces" transform="translate(0,135.9)" style="opacity: 1;"><text class="legendtext" text-anchor="start" x="40" y="6.24" style="font-family: Arial; font-size: 16px; fill: rgb(46, 46, 46); fill-opacity: 1; white-space: pre;">sin(6x)</text><g class="layers" style="opacity: 1;"><g class="legendfill"/><g class="legendlines"><path class="js-line" d="M5,0h30" style="fill: none; stroke: rgb(238, 202, 59); stroke-opacity: 1; stroke-width: 4px;"/></g><g class="legendsymbols"><g class="legendpoints"/></g></g><rect class="legendtoggle" x="0" y="-11.9" width="88.015625" height="23.8" style="fill: rgb(0, 0, 0); fill-opacity: 0;"/></g></g></g><rect class="scrollbar" rx="20" ry="3" width="0" height="0" style="fill: rgb(128, 139, 164); fill-opacity: 1;" x="0" y="0"/></g><g class="g-gtitle"><text class="gtitle" x="100" y="50" text-anchor="start" dy="0.35em" style="font-family: Arial; font-size: 24px; fill: rgb(99, 99, 99); opacity: 1; font-weight: normal; white-space: pre;">SINE FUNCTIONS</text></g><g class="g-xtitle"><text class="xtitle" x="391" y="470" text-anchor="middle" style="font-family: Arial; font-size: 20px; fill: rgb(46, 46, 46); opacity: 1; font-weight: normal; white-space: pre;">x</text></g><g class="g-ytitle"><text class="ytitle" transform="rotate(-90,50,250)" x="50" y="250" text-anchor="middle" style="font-family: Arial; font-size: 20px; fill: rgb(46, 46, 46); opacity: 1; font-weight: normal; white-space: pre;">y</text></g></g></svg>