<svg class="main-svg" xmlns="http://www.w3.org/2000/svg" xmlns:xlink="http://www.w3.org/1999/xlink" width="800" height="500" style="" viewBox="0 0 800 500"><rect x="0" y="0" width="800" height="500" style="fill: rgb(247, 247, 247); fill-opacity: 1;"/><defs id="defs-45d158"><g class="clips"><clipPath id="clip45d158xyplot" class="plotclip"><rect width="582" height="300"/></clipPath><clipPath class="axesclip" id="clip45d158x"><rect x="100" y="0" width="582" height="500"/></clipPath><clipPath class="axesclip" id="clip45d158y"><rect x="0" y="100" width="800" height="300"/></clipPath><clipPath class="axesclip" id="clip45d158xy"><rect x="100" y="100" width="582" height="300"/></clipPath></g><g class="gradients"/><g class="patterns"/></defs><g class="bglayer"/><g class="layer-below"><g class="imagelayer"/><g class="shapelayer"/></g><g class="cartesianlayer"><g class="subplot xy"><g class="layer-subplot"><g class="shapelayer"/><g class="imagelayer"/></g><g class="minor-gridlayer"><g class="x"/><g class="y"/></g><g class="gridlayer"><g class="x"><path class="xgrid crisp" transform="translate(192.63,0)" d="M0,100v300" style="stroke: rgb(231, 231, 231); stroke-opacity: 1; stroke-width: 1px;"/><path class="xgrid crisp" transform="translate(285.26,0)" d="M0,100v300" style="stroke: rgb(231, 231, 231); stroke-opacity: 1; stroke-width: 1px;"/><path class="xgrid crisp" transform="translate(377.88,0)" d="M0,100v300" style="stroke: rgb(231, 231, 231); stroke-opacity: 1; stroke-width: 1px;"/><path class="xgrid crisp" transform="translate(470.51,0)" d="M0,100v300" style="stroke: rgb(231, 231, 231); stroke-opacity: 1; stroke-width: 1px;"/><path class="xgrid crisp" transform="translate(563.14,0)" d="M0,100v300" style="stroke: rgb(231, 231, 231); stroke-opacity: 1; stroke-width: 1px;"/><path class="xgrid crisp" transform="translate(655.77,0)" d="M0,100v300" style="stroke: rgb(231, 231, 231); stroke-opacity: 1; stroke-width: 1px;"/></g><g class="y"><path class="ygrid crisp" transform="translate(0,385)" d="M100,0h582" style="stroke: rgb(231, 231, 231); stroke-opacity: 1; stroke-width: 1px;"/><path class="ygrid crisp" transform="translate(0,317.5)" d="M100,0h582" style="stroke: rgb(231, 231, 231); stroke-opacity: 1; stroke-width: 1px;"/><path class="ygrid crisp" transform="translate(0,182.5)" d="M100,0h582" style="stroke: rgb(231, 231, 231); stroke-opacity: 1; stroke-width: 1px;"/><path class="ygrid crisp" transform="translate(0,115)" d="M100,0h582" style="stroke: rgb(231, 231, 231); stroke-opacity: 1; stroke-width: 1px;"/></g></g><g class="zerolinelayer"><path class="xzl zl crisp" transform="translate(100,0)" d="M0,100v300" style="stroke: rgb(46, 46, 46); stroke-opacity: 1; stroke-width: 1px;"/><path class="yzl zl crisp" transform="translate(0,250)" d="M100,0h582" style="stroke: rgb(46, 46, 46); stroke-opacity: 1; stroke-width: 1px;"/></g><path class="xlines-below"/><path class="ylines-below"/><g class="overlines-below"/><g class="xaxislayer-below"/><g class="yaxislayer-below"/><g class="overaxes-below"/><g class="plot" transform="translate(100,100)" clip-path="url(#clip45d158xyplot)"><g class="scatterlayer mlayer"><g class="trace scatter trace35a839" style="stroke-miterlimit: 2; opacity: 1;"><g class="fills"/><g class="errorbars"/><g class="lines"><path class="js-line" d="M0,150L69.84,100.3L72.75,98.34L110.58,74.12L113.49,72.37L145.5,54.54L148.41,53.05L177.51,39.55L180.42,38.34L206.61,28.77L209.52,27.85L232.8,21.61L235.71,20.97L258.99,17.01L261.9,16.66L285.18,15.07L288.09,15.02L311.37,15.82L314.28,16.06L337.56,19.24L340.47,19.78L363.75,25.28L366.66,26.1L389.94,33.8L392.85,34.89L419.04,45.98L421.95,47.35L451.05,62.32L453.96,63.95L485.97,83.11L488.88,84.96L526.71,110.3L529.62,112.34L582,150" style="vector-effect: non-scaling-stroke; fill: none; stroke: rgb(76, 120, 168); stroke-opacity: 1; stroke-width: 4px; opacity: 1;"/></g><g class="points"/><g class="text"/></g><g class="trace scatter tracea1dac8" style="stroke-miterlimit: 2; opacity: 1;"><g class="fills"/><g class="errorbars"/><g class="lines"><path class="js-line" d="M0,150L37.83,96.39L40.74,92.52L61.11,67.26L64.02,63.95L81.48,45.98L84.39,43.33L98.94,31.7L101.85,29.71L113.49,22.98L116.4,21.61L128.04,17.39L130.95,16.66L142.59,15.07L145.5,15L157.14,16.06L160.05,16.66L171.69,20.36L174.6,21.61L186.24,27.85L189.15,29.71L203.7,40.78L206.61,43.33L221.16,57.59L224.07,60.72L241.53,81.28L244.44,84.96L267.72,116.43L270.63,120.55L334.65,211.29L337.56,215.04L357.93,239.28L360.84,242.41L375.39,256.67L378.3,259.22L392.85,270.29L395.76,272.15L407.4,278.39L410.31,279.64L421.95,283.34L424.86,283.94L436.5,285L439.41,284.93L451.05,283.34L453.96,282.61L465.6,278.39L468.51,277.02L480.15,270.29L483.06,268.3L497.61,256.67L500.52,254.02L515.07,239.28L517.98,236.05L535.44,215.04L538.35,211.29L561.63,179.45L564.54,175.3L582,150" style="vector-effect: non-scaling-stroke; fill: none; stroke: rgb(245, 133, 24); stroke-opacity: 1; stroke-width: 4px; opacity: 1;"/></g><g class="points"/><g class="text"/></g><g class="trace scatter trace357301" style="stroke-miterlimit: 2; opacity: 1;"><g class="fills"/><g class="errorbars"/><g class="lines"><path class="js-line" d="M0,150L29.1,88.71L32.01,83.11L46.56,57.59L49.47,53.05L61.11,37.17L64.02,33.8L72.75,25.28L75.66,22.98L84.39,17.8L87.3,16.66L96.03,15.02L98.94,15.07L107.67,17.01L110.58,18.25L119.31,23.72L122.22,26.1L130.95,34.89L133.86,38.34L145.5,54.54L148.41,59.14L162.96,84.96L165.87,90.61L186.24,133.08L189.15,139.41L221.16,207.48L224.07,213.17L238.62,239.28L241.53,243.95L253.17,260.45L256.08,263.98L264.81,273.04L267.72,275.52L276.45,281.27L279.36,282.61L288.09,284.85L291,285L299.73,283.65L302.64,282.61L311.37,277.72L314.28,275.52L323.01,267.27L325.92,263.98L337.56,248.41L340.47,243.95L355.02,218.72L357.93,213.17L375.39,177.38L378.3,171.12L419.04,84.96L421.95,79.46L436.5,54.54L439.41,50.15L451.05,34.89L453.96,31.7L462.69,23.72L465.6,21.61L474.33,17.01L477.24,16.06L485.97,15.02L488.88,15.27L497.61,17.8L500.52,19.24L509.25,25.28L512.16,27.85L520.89,37.17L523.8,40.78L535.44,57.59L538.35,62.32L552.9,88.71L555.81,94.45L576.18,137.3L579.09,143.64L582,150" style="vector-effect: non-scaling-stroke; fill: none; stroke: rgb(228, 87, 86); stroke-opacity: 1; stroke-width: 4px; opacity: 1;"/></g><g class="points"/><g class="text"/></g><g class="trace scatter trace6b7306" style="stroke-miterlimit: 2; opacity: 1;"><g class="fills"/><g class="errorbars"/><g class="lines"><path class="js-line" d="M0,150L23.28,84.96L26.19,77.66L37.83,51.59L40.74,45.98L49.47,31.7L52.38,27.85L61.11,19.24L64.02,17.39L69.84,15.27L72.75,15L78.57,16.06L81.48,17.39L87.3,21.61L90.21,24.48L98.94,36.02L101.85,40.78L110.58,57.59L113.49,63.95L125.13,92.52L128.04,100.3L151.32,166.92L154.23,175.3L171.69,222.34L174.6,229.35L186.24,254.02L189.15,259.22L197.88,272.15L200.79,275.52L206.61,280.76L209.52,282.61L215.34,284.73L218.25,285L224.07,283.94L226.98,282.61L232.8,278.39L235.71,275.52L244.44,263.98L247.35,259.22L256.08,242.41L258.99,236.05L270.63,207.48L273.54,199.7L296.82,133.08L299.73,124.7L317.19,77.66L320.1,70.65L331.74,45.98L334.65,40.78L343.38,27.85L346.29,24.48L352.11,19.24L355.02,17.39L360.84,15.27L363.75,15L369.57,16.06L372.48,17.39L378.3,21.61L381.21,24.48L389.94,36.02L392.85,40.78L401.58,57.59L404.49,63.95L416.13,92.52L419.04,100.3L442.32,166.92L445.23,175.3L462.69,222.34L465.6,229.35L477.24,254.02L480.15,259.22L488.88,272.15L491.79,275.52L497.61,280.76L500.52,282.61L506.34,284.73L509.25,285L515.07,283.94L517.98,282.61L523.8,278.39L526.71,275.52L535.44,263.98L538.35,259.22L547.08,242.41L549.99,236.05L561.63,207.48L564.54,199.7L582,150" style="vector-effect: non-scaling-stroke; fill: none; stroke: rgb(114, 183, 178); stroke-opacity: 1; stroke-width: 4px; opacity: 1;"/></g><g class="points"/><g class="text"/></g><g class="trace scatter tracee81f88" style="stroke-miterlimit: 2; opacity: 1;"><g class="fills"/><g class="errorbars"/><g class="lines"><path class="js-line" d="M0,150L20.37,79.46L23.28,70.65L32.01,47.35L34.92,40.78L43.65,25.28L46.56,21.61L52.38,16.66L55.29,15.42L61.11,15.42L64.02,16.66L69.84,21.61L72.75,25.28L78.57,34.89L81.48,40.78L90.21,62.32L93.12,70.65L104.76,108.28L107.67,118.48L136.77,220.54L139.68,229.35L148.41,252.65L151.32,259.22L160.05,274.72L162.96,278.39L168.78,283.34L171.69,284.58L177.51,284.58L180.42,283.34L186.24,278.39L189.15,274.72L194.97,265.11L197.88,259.22L206.61,237.68L209.52,229.35L221.16,191.72L224.07,181.52L253.17,79.46L256.08,70.65L264.81,47.35L267.72,40.78L276.45,25.28L279.36,21.61L285.18,16.66L288.09,15.42L293.91,15.42L296.82,16.66L302.64,21.61L305.55,25.28L311.37,34.89L314.28,40.78L323.01,62.32L325.92,70.65L337.56,108.28L340.47,118.48L369.57,220.54L372.48,229.35L381.21,252.65L384.12,259.22L392.85,274.72L395.76,278.39L401.58,283.34L404.49,284.58L410.31,284.58L413.22,283.34L419.04,278.39L421.95,274.72L427.77,265.11L430.68,259.22L439.41,237.68L442.32,229.35L453.96,191.72L456.87,181.52L485.97,79.46L488.88,70.65L497.61,47.35L500.52,40.78L509.25,25.28L512.16,21.61L517.98,16.66L520.89,15.42L526.71,15.42L529.62,16.66L535.44,21.61L538.35,25.28L544.17,34.89L547.08,40.78L555.81,62.32L558.72,70.65L570.36,108.28L573.27,118.48L582,150" style="vector-effect: non-scaling-stroke; fill: none; stroke: rgb(84, 162, 75); stroke-opacity: 1; stroke-width: 4px; opacity: 1;"/></g><g class="points"/><g class="text"/></g><g class="trace scatter trace314ac1" style="stroke-miterlimit: 2; opacity: 1;"><g class="fills"/><g class="errorbars"/><g class="lines"><path class="js-line" d="M0,150L17.46,77.66L20.37,67.26L29.1,40.78L32.01,33.8L37.83,22.98L40.74,19.24L46.56,15.27L49.47,15.07L52.38,16.06L55.29,18.25L61.11,26.1L64.02,31.7L69.84,45.98L72.75,54.54L81.48,84.96L84.39,96.39L104.76,183.57L107.67,195.73L119.31,239.28L122.22,248.41L130.95,270.29L133.86,275.52L139.68,282.61L142.59,284.4L145.5,285L148.41,284.4L151.32,282.61L154.23,279.64L160.05,270.29L162.96,263.98L168.78,248.41L171.69,239.28L180.42,207.48L183.33,195.73L212.43,74.12L215.34,63.95L224.07,38.34L226.98,31.7L232.8,21.61L235.71,18.25L241.53,15.07L244.44,15.27L247.35,16.66L250.26,19.24L256.08,27.85L258.99,33.8L264.81,48.74L267.72,57.59L276.45,88.71L279.36,100.3L311.37,232.74L314.28,242.41L323.01,266.2L325.92,272.15L331.74,280.76L334.65,283.34L337.56,284.73L340.47,284.93L343.38,283.94L346.29,281.75L352.11,273.9L355.02,268.3L360.84,254.02L363.75,245.46L372.48,215.04L375.39,203.61L395.76,116.43L398.67,104.27L410.31,60.72L413.22,51.59L421.95,29.71L424.86,24.48L430.68,17.39L433.59,15.6L436.5,15L439.41,15.6L442.32,17.39L445.23,20.36L451.05,29.71L453.96,36.02L459.78,51.59L462.69,60.72L471.42,92.52L474.33,104.27L503.43,225.88L506.34,236.05L515.07,261.66L517.98,268.3L523.8,278.39L526.71,281.75L532.53,284.93L535.44,284.73L538.35,283.34L541.26,280.76L547.08,272.15L549.99,266.2L555.81,251.26L558.72,242.41L567.45,211.29L570.36,199.7L582,150" style="vector-effect: non-scaling-stroke; fill: none; stroke: rgb(238, 202, 59); stroke-opacity: 1; stroke-width: 4px; opacity: 1;"/></g><g class="points"/><g class="text"/></g></g></g><g class="overplot"/><path class="xlines-above crisp" d="M0,0" style="fill: none;"/><path class="ylines-above crisp" d="M0,0" style="fill: none;"/><g class="overlines-above"/><g class="xaxislayer-above"><g class="xtick"><text text-anchor="middle" x="0" y="422" transform="translate(100,0)" style="font-family: Arial; font-size: 16px; fill: rgb(46, 46, 46); fill-opacity: 1; white-space: pre; opacity: 1;">0</text></g><g class="xtick"><text text-anchor="middle" x="0" y="422" style="font-family: Arial; font-size: 16px; fill: rgb(46, 46, 46); fill-opacity: 1; white-space: pre; opacity: 1;" transform="translate(192.63,0)">0.5</text></g><g class="xtick"><text text-anchor="middle" x="0" y="422" style="font-family: Arial; font-size: 16px; fill: rgb(46, 46, 46); fill-opacity: 1; white-space: pre; opacity: 1;" transform="translate(285.26,0)">1</text></g><g class="xtick"><text text-anchor="middle" x="0" y="422" style="font-family: Arial; font-size: 16px; fill: rgb(46, 46, 46); fill-opacity: 1; white-space: pre; opacity: 1;" transform="translate(377.88,0)">1.5</text></g><g class="xtick"><text text-anchor="middle" x="0" y="422" style="font-family: Arial; font-size: 16px; fill: rgb(46, 46, 46); fill-opacity: 1; white-space: pre; opacity: 1;" transform="translate(470.51,0)">2</text></g><g class="xtick"><text text-anchor="middle" x="0" y="422" style="font-family: Arial; font-size: 16px; fill: rgb(46, 46, 46); fill-opacity: 1; white-space: pre; opacity: 1;" transform="translate(563.14,0)">2.5</text></g><g class="xtick"><text text-anchor="middle" x="0" y="422" style="font-family: Arial; font-size: 16px; fill: rgb(46, 46, 46); fill-opacity: 1; white-space: pre; opacity: 1;" transform="translate(655.77,0)">3</text></g></g><g class="yaxislayer-above"><g class="ytick"><text text-anchor="end" x="94" y="5.6" transform="translate(0,385)" style="font-family: Arial; font-size: 16px; fill: rgb(46, 46, 46); fill-opacity: 1; white-space: pre; opacity: 1;">−1</text></g><g class="ytick"><text text-anchor="end" x="94" y="5.6" style="font-family: Arial; font-size: 16px; fill: rgb(46, 46, 46); fill-opacity: 1; white-space: pre; opacity: 1;" transform="translate(0,317.5)">−0.5</text></g><g class="ytick"><text text-anchor="end" x="94" y="5.6" style="font-family: Arial; font-size: 16px; fill: rgb(46, 46, 46); fill-opacity: 1; white-space: pre; opacity: 1;" transform="translate(0,250)">0</text></g><g class="ytick"><text text-anchor="end" x="94" y="5.6" style="font-family: Arial; font-size: 16px; fill: rgb(46, 46, 46); fill-opacity: 1; white-space: pre; opacity: 1;" transform="translate(0,182.5)">0.5</text></g><g class="ytick"><text text-anchor="end" x="94" y="5.6" style="font-family: Arial; font-size: 16px; fill: rgb(46, 46, 46); fill-opacity: 1; white-space: pre; opacity: 1;" transform="translate(0,115)">1</text></g></g><g class="overaxes-above"/></g></g><g class="polarlayer"/><g class="smithlayer"/><g class="ternarylayer"/><g class="geolayer"/><g class="funnelarealayer"/><g class="pielayer"/><g class="iciclelayer"/><g class="treemaplayer"/><g class="sunburstlayer"/><g class="glimages"/><defs id="topdefs-45d158"><g class="clips"/><clipPath id="legend45d158"><rect width="94" height="153" x="0" y="0"/></clipPath></defs><g class="layer-above"><g class="imagelayer"/><g class="shapelayer"/></g><g class="infolayer"><g class="legend" pointer-events="all" transform="translate(693.64,100)"><rect class="bg" shape-rendering="crispEdges" style="stroke: rgb(68, 68, 68); stroke-opacity: 1; fill: rgb(247, 247, 247); fill-opacity: 1; stroke-width: 0px;" width="94" height="153" x="0" y="0"/><g class="scrollbox" transform="" clip-path="url(#legend45d158)"><g class="groups"><g class="traces" transform="translate(0,16.9)" style="opacity: 1;"><text class="legendtext" text-anchor="start" x="40" y="6.24" style="font-family: Arial; font-size: 16px; fill: rgb(46, 46, 46); fill-opacity: 1; white-space: pre;">sin(x)</text><g class="layers" style="opacity: 1;"><g class="legendfill"/><g class="legendlines"><path class="js-line" d="M5,0h30" style="fill: none; stroke: rgb(76, 120, 168); stroke-opacity: 1; stroke-width: 4px;"/></g><g class="legendsymbols"><g class="legendpoints"/></g></g><rect class="legendtoggle" x="0" y="-11.9" width="88.015625" height="23.8" style="fill: rgb(0, 0, 0); fill-opacity: 0;"/></g><g class="traces" transform="translate(0,40.7)" style="opacity: 1;"><text class="legendtext" text-anchor="start" x="40" y="6.24" style="font-family: Arial; font-size: 16px; fill: rgb(46, 46, 46); fill-opacity: 1; white-space: pre;">sin(2x)</text><g class="layers" style="opacity: 1;"><g class="legendfill"/><g class="legendlines"><path class="js-line" d="M5,0h30" style="fill: none; stroke: rgb(245, 133, 24); stroke-opacity: 1; stroke-width: 4px;"/></g><g class="legendsymbols"><g class="legendpoints"/></g></g><rect class="legendtoggle" x="0" y="-11.9" width="88.015625" height="23.8" style="fill: rgb(0, 0, 0); fill-opacity: 0;"/></g><g class="traces" transform="translate(0,64.5)" style="opacity: 1;"><text class="legendtext" text-anchor="start" x="40" y="6.24" style="font-family: Arial; font-size: 16px; fill: rgb(46, 46, 46); fill-opacity: 1; white-space: pre;">sin(3x)</text><g class="layers" style="opacity: 1;"><g class="legendfill"/><g class="legendlines"><path class="js-line" d="M5,0h30" style="fill: none; stroke: rgb(228, 87, 86); stroke-opacity: 1; stroke-width: 4px;"/></g><g class="legendsymbols"><g class="legendpoints"/></g></g><rect class="legendtoggle" x="0" y="-11.9" width="88.015625" height="23.8" style="fill: rgb(0, 0, 0); fill-opacity: 0;"/></g><g class="traces" transform="translate(0,88.30000000000001)" style="opacity: 1;"><text class="legendtext" text-anchor="start" x="40" y="6.24" style="font-family: Arial; font-size: 16px; fill: rgb(46, 46, 46); fill-opacity: 1; white-space: pre;">sin(4x)</text><g class="layers" style="opacity: 1;"><g class="legendfill"/><g class="legendlines"><path class="js-line" d="M5,0h30" style="fill: none; stroke: rgb(114, 183, 178); stroke-opacity: 1; stroke-width: 4px;"/></g><g class="legendsymbols"><g class="legendpoints"/></g></g><rect class="legendtoggle" x="0" y="-11.9" width="88.015625" height="23.8" style="fill: rgb(0, 0, 0); fill-opacity: 0;"/></g><g class="traces" transform="translate(0,112.10000000000001)" style="opacity: 1;"><text class="legendtext" text-anchor="start" x="40" y="6.24" style="font-family: Arial; font-size: 16px; fill: rgb(46, 46, 46); fill-opacity: 1; white-space: pre;">sin(5x)</text><g class="layers" style="opacity: 1;"><g class="legendfill"/><g class="legendlines"><path class="js-line" d="M5,0h30" style="fill: none; stroke: rgb(84, 162, 75); stroke-opacity: 1; stroke-width: 4px;"/></g><g class="legendsymbols"><g class="legendpoints"/></g></g><rect class="legendtoggle" x="0" y="-11.9" width="88.015625" height="23.8" style="fill: rgb(0, 0, 0); fill-opacity: 0;"/></g><g class="traces" transform="translate(0,135.9)" style="opacity: 1;"><text class="legendtext" text-anchor="start" x="40" y="6.24" style="font-family: Arial; font-size: 16px; fill: rgb(46, 46, 46); fill-opacity: 1; white-space: pre;">sin(6x)</text><g class="layers" style="opacity: 1;"><g class="legendfill"/><g class="legendlines"><path class="js-line" d="M5,0h30" style="fill: none; stroke: rgb(238, 202, 59); stroke-opacity: 1; stroke-width: 4px;"/></g><g class="legendsymbols"><g class="legendpoints"/></g></g><rect class="legendtoggle" x="0" y="-11.9" width="88.015625" height="23.8" style="fill: rgb(0, 0, 0); fill-opacity: 0;"/></g></g></g><rect class="scrollbar" rx="20" ry="3" width="0" height="0" style="fill: rgb(128, 139, 164); fill-opacity: 1;" x="0" y="0"/></g><g class="g-gtitle"><text class="gtitle" x="100" y="50" text-anchor="start" dy="0.35em" style="font-family: Arial; font-size: 24px; fill: rgb(99, 99, 99); opacity: 1; font-weight: normal; white-space: pre;">SINE FUNCTIONS</text></g><g class="g-xtitle"><text class="xtitle" x="391" y="470" text-anchor="middle" style="font-family: Arial; font-size: 20px; fill: rgb(46, 46, 46); opacity: 1; font-weight: normal; white-space: pre;">x</text></g><g class="g-ytitle"><text class="ytitle" transform="rotate(-90,50,250)" x="50" y="250" text-anchor="middle" style="font-family: Arial; font-size: 20px; fill: rgb(46, 46, 46); opacity: 1; font-weight: normal; white-space: pre;">y</text></g></g></svg>